{"title":"Hanuman.com (2013) Kolkata Bengali Movie_Theaterical Trailer and","uid":9217089,"size":69445290,"categoryP":"video","categoryS":"music_videos","magnet":"?xt=urn:btih:4dbf1262c8ec5f71fc72b8b40ad460f168692cbc&amp;dn=Hanuman.com+%282013%29+Kolkata+Bengali+Movie_Theaterical+Trailer+and&amp;tr=udp%3A%2F%2Ftracker.openbittorrent.com%3A80&amp;tr=udp%3A%2F%2Fopen.demonii.com%3A1337&amp;tr=udp%3A%2F%2Ftracker.coppersurfer.tk%3A6969&amp;tr=udp%3A%2F%2Fexodus.desync.com%3A6969","seeders":1,"leechers":0,"uploader":"shilpa143","files":14,"time":1384878095,"description":"[img]http://s22.postimg.org/jf0cw5opd/hanuman3_zps45ba14d7.jpg[/img]\n\n[b]\nMovie Name :- HANUMAN.COM\nStar Cast :\n\nProsenjit Chatterjee\n\nKaushik Sen\n\nKanchan Mallik\n\nRudranil Ghosh\n\nSaskia, Moushmi among others.[/b]\n\n[b]Trailer : Media Info :-[/b]\n\n[b]General\nComplete name                            : Hanuman. com trailer-HD.mp4\nFormat                                   : MPEG-4\nFormat profile                           : Base Media / Version 2\nCodec ID                                 : mp42\nFile size                                : 31.4 MiB\nDuration                                 : 1mn 51s\nOverall bit rate mode                    : Variable\nOverall bit rate                         : 2 362 Kbps\nEncoded date                             : UTC 2013-11-19 13:55:29\nTagged date                              : UTC 2013-11-19 14:25:31\nWriting application                      : HandBrake 0.9.5 2011010300\n\nVideo\nID                                       : 1\nFormat                                   : AVC\nFormat/Info                              : Advanced Video Codec\nFormat profile                           : &lt;a class=&quot;__cf_email__&quot; href=&quot;/cdn-cgi/l/email-protection&quot; data-cfemail=&quot;93dbfaf4fbd3dfa6bda3&quot;&gt;[email&amp;#160;protected]&lt;/a&gt;&lt;script cf-hash='f9e31' type=&quot;text/javascript&quot;&gt;\n/* &lt;![CDATA[ */!function(){try{var t=&quot;currentScript&quot;in document?document.currentScript:function(){for(var t=document.getElementsByTagName(&quot;script&quot;),e=t.length;e--;)if(t[e].getAttribute(&quot;cf-hash&quot;))return t[e]}();if(t&amp;&amp;t.previousSibling){var e,r,n,i,c=t.previousSibling,a=c.getAttribute(&quot;data-cfemail&quot;);if(a){for(e=&quot;&quot;,r=parseInt(a.substr(0,2),16),n=2;a.length-n;n+=2)i=parseInt(a.substr(n,2),16)^r,e+=String.fromCharCode(i);e=document.createTextNode(e),c.parentNode.replaceChild(e,c)}}}catch(u){}}();/* ]]&gt; */&lt;/script&gt;\nFormat settings, CABAC                   : Yes\nFormat settings, ReFrames                : 16 frames\nCodec ID                                 : avc1\nCodec ID/Info                            : Advanced Video Coding\nDuration                                 : 1mn 51s\nBit rate mode                            : Variable\nBit rate                                 : 2 230 Kbps\nWidth                                    : 1 280 pixels\nHeight                                   : 544 pixels\nDisplay aspect ratio                     : 2.35:1\nFrame rate mode                          : Constant\nFrame rate                               : 29.970 fps\nColor space                              : YUV\nChroma subsampling                       : 4:2:0\nBit depth                                : 8 bits\nScan type                                : Progressive\nBits/(Pixel*Frame)                       : 0.107\nStream size                              : 29.7 MiB (94%)\nWriting library                          : x264 core 112\n\nAudio\nID                                       : 2\nFormat                                   : AAC\nFormat/Info                              : Advanced Audio Codec\nFormat profile                           : LC\nCodec ID                                 : 40\nDuration                                 : 1mn 51s\nBit rate mode                            : Variable\nBit rate                                 : 128 Kbps\nMaximum bit rate                         : 169 Kbps\nChannel count                            : 2 channels\nChannel positions                        : Front: L R\nSampling rate                            : 44.1 KHz\nCompression mode                         : Lossy\nDelay relative to video                  : 67ms\n\n[/b]\n\n[b]Song - Ikir Mikir : Media Info :-[/b]\n\n[b]General\nComplete name                            : Ikir Mikir-HD.mp4\nFormat                                   : MPEG-4\nFormat profile                           : Base Media / Version 2\nCodec ID                                 : mp42\nFile size                                : 31.8 MiB\nDuration                                 : 1mn 41s\nOverall bit rate mode                    : Variable\nOverall bit rate                         : 2 629 Kbps\n\n\nVideo\nID                                       : 1\nFormat                                   : AVC\nFormat/Info                              : Advanced Video Codec\nFormat profile                           : &lt;a class=&quot;__cf_email__&quot; href=&quot;/cdn-cgi/l/email-protection&quot; data-cfemail=&quot;f1b9989699b1bdc5dfc1&quot;&gt;[email&amp;#160;protected]&lt;/a&gt;&lt;script cf-hash='f9e31' type=&quot;text/javascript&quot;&gt;\n/* &lt;![CDATA[ */!function(){try{var t=&quot;currentScript&quot;in document?document.currentScript:function(){for(var t=document.getElementsByTagName(&quot;script&quot;),e=t.length;e--;)if(t[e].getAttribute(&quot;cf-hash&quot;))return t[e]}();if(t&amp;&amp;t.previousSibling){var e,r,n,i,c=t.previousSibling,a=c.getAttribute(&quot;data-cfemail&quot;);if(a){for(e=&quot;&quot;,r=parseInt(a.substr(0,2),16),n=2;a.length-n;n+=2)i=parseInt(a.substr(n,2),16)^r,e+=String.fromCharCode(i);e=document.createTextNode(e),c.parentNode.replaceChild(e,c)}}}catch(u){}}();/* ]]&gt; */&lt;/script&gt;\nFormat settings, CABAC                   : Yes\nFormat settings, ReFrames                : 15 frames\nCodec ID                                 : avc1\nCodec ID/Info                            : Advanced Video Coding\nDuration                                 : 1mn 41s\nBit rate mode                            : Variable\nBit rate                                 : 2 372 Kbps\nWidth                                    : 1 198 pixels\nHeight                                   : 408 pixels\nDisplay aspect ratio                     : 2.936\nFrame rate mode                          : Constant\nFrame rate                               : 25.000 fps\nColor space                              : YUV\nChroma subsampling                       : 4:2:0\nBit depth                                : 8 bits\nScan type                                : Progressive\nBits/(Pixel*Frame)                       : 0.194\nStream size                              : 28.7 MiB (90%)\nWriting library                          : x264 core 112\n\nAudio\nID                                       : 2\nFormat                                   : AAC\nFormat/Info                              : Advanced Audio Codec\nFormat profile                           : LC\nCodec ID                                 : 40\nDuration                                 : 1mn 41s\nBit rate mode                            : Variable\nBit rate                                 : 253 Kbps\nMaximum bit rate                         : 320 Kbps\nChannel count                            : 2 channels\nChannel positions                        : Front: L R\nSampling rate                            : 44.1 KHz\n\n[/b]\n\n[b]Screen :-[/b]\n\n[b]Trailer :-[/b]\n\n[img]http://s22.postimg.org/wkb9oit75/vlcsnap_2013_11_19_19h58m08s27.png[/img]\n\n[img]http://s22.postimg.org/c1gdjgf9t/vlcsnap_2013_11_19_19h59m29s69.png[/img]\n\n[img]http://s22.postimg.org/yu3zd0rip/vlcsnap_2013_11_19_19h59m40s174.jpg[/img]\n\n[b]Song - Ikir Mikir[/b]\n\n[img]http://s22.postimg.org/unj4xorwx/vlcsnap_2013_11_19_20h27m39s74.png[/img]\n\n[img]http://s22.postimg.org/tzaaeqt75/vlcsnap_2013_11_19_20h27m49s178.png[/img]\n\n[img]http://s22.postimg.org/8e57r4wgh/vlcsnap_2013_11_19_20h27m57s0.png[/img]\n\n\n\n[img]http://s22.postimg.org/bhay4358x/thanks.jpg[/img]\n\nSource :- Bengali-Mp3\n\n[b]*Credit Goes to Original Ripper*[/b]","torrent":{"xt":"urn:btih:4dbf1262c8ec5f71fc72b8b40ad460f168692cbc","amp;dn":"Hanuman.com+%282013%29+Kolkata+Bengali+Movie_Theaterical+Trailer+and","amp;tr":["udp%3A%2F%2Ftracker.openbittorrent.com%3A80","udp%3A%2F%2Fopen.demonii.com%3A1337","udp%3A%2F%2Ftracker.coppersurfer.tk%3A6969","udp%3A%2F%2Fexodus.desync.com%3A6969"],"infoHash":"4dbf1262c8ec5f71fc72b8b40ad460f168692cbc","infoHashBuffer":{"type":"Buffer","data":[77,191,18,98,200,236,95,113,252,114,184,180,10,212,96,241,104,105,44,188]},"announce":[],"urlList":[]}}